Coordinates
version=1
nRows=21
nColumns=22
inDegrees=yes

Units are S.I. units (second, meters, Newtons, ...)
If the header above contains a line with 'inDegrees', this indicates whether rotational values are in degrees (yes) or radians (no).

endheader
time	pelvis_tilt	pelvis_list	pelvis_rotation	pelvis_tx	pelvis_ty	pelvis_tz	hip_flexion_r	hip_adduction_r	hip_rotation_r	knee_angle_r	ankle_angle_r	subtalar_angle_r	hip_flexion_l	hip_adduction_l	hip_rotation_l	knee_angle_l	ankle_angle_l	subtalar_angle_l	lumbar_extension	lumbar_bending	lumbar_rotation
      2.64000000	     -1.93754247	      8.62637233	    -54.32309351	      0.01145031	      0.97277082	      0.23548860	     33.91617308	     -4.13385026	     -0.65626443	    -64.69486304	     10.49082056	     -9.36079547	     21.64891492	      4.59121575	      2.37521701	    -25.09273901	     18.01627867	      1.00135180	     -1.32276299	     -1.48719701	     -1.34211896
      2.65000000	     -1.87947337	      8.62150895	    -54.51938781	      0.01618450	      0.97309628	      0.24034612	     34.61883620	     -4.30160262	     -1.48342205	    -63.22890388	     11.29396298	     -9.05691468	     21.02885379	      4.64657119	      2.13326750	    -24.82877628	     18.37372325	      0.84051938	     -1.47172900	     -1.51362229	     -1.58331517
      2.66000000	     -1.80414437	      8.62876450	    -54.75557370	      0.02085209	      0.97334501	      0.24531979	     35.27288169	     -4.47269542	     -2.29276497	    -61.63382055	     11.95912270	     -8.90157067	     20.39695325	      4.71004945	      1.84728200	    -24.54966442	     18.73386831	      0.70583371	     -1.60812446	     -1.56074258	     -1.77328555
      2.67000000	     -1.70624855	      8.63367636	    -55.03948439	      0.02544587	      0.97354452	      0.25043159	     35.86304145	     -4.64056467	     -3.08578435	    -59.92350452	     12.48637278	     -8.86714659	     19.73661820	      4.77827999	      1.52332924	    -24.25611705	     19.09645148	      0.58171935	     -1.74851697	     -1.62504778	     -1.90615507
      2.68000000	     -1.58880429	      8.63573721	    -55.37092871	      0.02996107	      0.97369363	      0.25568423	     36.39325356	     -4.79705452	     -3.85836253	    -58.11464744	     12.90133012	     -8.93264653	     19.05127382	      4.84943935	      1.16379144	    -23.95155180	     19.46263049	      0.46994076	     -1.89206604	     -1.70357671	     -1.98755472
      2.69000000	     -1.45805302	      8.63536641	    -55.74224744	      0.03438368	      0.97378617	      0.26106277	     36.86922107	     -4.93796167	     -4.61895456	    -56.21905583	     13.22155626	     -9.05634325	     18.35180750	      4.92021048	      0.77104965	    -23.64392946	     19.82903541	      0.37116733	     -2.03915047	     -1.79229554	     -2.01689055
      2.70000000	     -1.32475686	      8.64189766	    -56.14841440	      0.03871378	      0.97379506	      0.26657141	     37.30690316	     -5.05503622	     -5.36837892	    -54.25136073	     13.46773428	     -9.19015514	     17.65409420	      4.99119491	      0.36290135	    -23.33748003	     20.20011928	      0.28443448	     -2.17004053	     -1.88881666	     -2.00695252
      2.71000000	     -1.17799144	      8.63392387	    -56.58669408	      0.04295432	      0.97378238	      0.27223450	     37.67384070	     -5.13730314	     -6.10245599	    -52.21042197	     13.61594792	     -9.33958802	     16.91559032	      5.06458176	     -0.02933560	    -23.00135278	     20.55182353	      0.19260049	     -2.31170374	     -1.98972256	     -1.98416831
      2.72000000	     -1.04305682	      8.62839334	    -57.03590225	      0.04710431	      0.97366096	      0.27799964	     38.00619377	     -5.18532147	     -6.85083334	    -50.12146152	     13.72359677	     -9.43334386	     16.20228393	      5.12685711	     -0.44140354	    -22.69747670	     20.92018608	      0.09819455	     -2.43806470	     -2.08374936	     -1.93384185
      2.73000000	     -0.96185188	      8.68435338	    -57.48716250	      0.05115166	      0.97329888	      0.28384299	     38.38660770	     -5.18103378	     -7.58512862	    -47.99968043	     13.80761168	     -9.42736511	     15.59669933	      5.17878128	     -0.84471914	    -22.43509086	     21.34163545	      0.01849641	     -2.46018872	     -2.16740793	     -1.85725459
      2.74000000	     -0.82290219	      8.61329688	    -57.94606958	      0.05513021	      0.97311462	      0.28984174	     38.55934560	     -5.13636284	     -8.36727488	    -45.82735617	     13.75893890	     -9.40504897	     14.84600682	      5.20123268	     -1.31268204	    -22.18239726	     21.70309447	     -0.11725414	     -2.64822312	     -2.22919697	     -1.80618726
      2.75000000	     -0.69681976	      8.59257076	    -58.39856870	      0.05905169	      0.97275424	      0.29592224	     38.75195077	     -5.06972185	     -9.12137520	    -43.64953086	     13.70595116	     -9.30302515	     14.13982633	      5.25920559	     -1.69394847	    -21.91861676	     22.07944513	     -0.25357352	     -2.76921608	     -2.31522871	     -1.72071762
      2.76000000	     -0.59991753	      8.58277600	    -58.84310532	      0.06288231	      0.97225306	      0.30208786	     38.93369644	     -4.94355054	     -9.85292542	    -41.46459326	     13.60036988	     -9.09205546	     13.48548837	      5.29469472	     -2.09903129	    -21.70392704	     22.48485044	     -0.38469819	     -2.85880806	     -2.38139437	     -1.64871428
      2.77000000	     -0.51251510	      8.58199159	    -59.27803859	      0.06665547	      0.97163417	      0.30834254	     39.09666930	     -4.78268435	    -10.56628773	    -39.28964190	     13.46676369	     -8.78067942	     12.85854238	      5.33089806	     -2.49881940	    -21.51996013	     22.89449194	     -0.50170396	     -2.92865224	     -2.44452362	     -1.57101166
      2.78000000	     -0.43466793	      8.59137013	    -59.70059076	      0.07037489	      0.97089072	      0.31468718	     39.24587713	     -4.59315372	    -11.26031596	    -37.13926684	     13.32505261	     -8.38761946	     12.26186332	      5.36597830	     -2.89834312	    -21.37055500	     23.31024538	     -0.60083257	     -2.97839887	     -2.50658407	     -1.48693938
      2.79000000	     -0.34743289	      8.61003924	    -60.11259063	      0.07408034	      0.97004901	      0.32110823	     39.37267335	     -4.39207128	    -11.90149280	    -35.02226910	     13.18964639	     -7.90438048	     11.66906518	      5.42397836	     -3.27125730	    -21.22695030	     23.72740761	     -0.68080751	     -3.01883881	     -2.57749217	     -1.41675596
      2.80000000	     -0.25970158	      8.64440465	    -60.51037148	      0.07777279	      0.96908362	      0.32761039	     39.49351392	     -4.18788791	    -12.51331202	    -32.95951373	     13.06092670	     -7.39490960	     11.10088484	      5.49511563	     -3.63660758	    -21.10898545	     24.14692135	     -0.74372631	     -3.03681591	     -2.65448198	     -1.34830314
      2.81000000	     -0.16021901	      8.69161818	    -60.89325211	      0.08149015	      0.96801406	      0.33417992	     39.60346471	     -3.99802010	    -13.09015330	    -30.96466268	     12.94057298	     -6.89886390	     10.54261110	      5.59233007	     -3.98443233	    -21.00564087	     24.56315129	     -0.79260749	     -3.04194293	     -2.74122276	     -1.29264445
      2.82000000	     -0.06744696	      8.76852125	    -61.26017597	      0.08523874	      0.96679676	      0.34081422	     39.73276321	     -3.82485335	    -13.65457734	    -29.05471302	     12.79996003	     -6.52852673	     10.03194554	      5.70081515	     -4.34951242	    -20.93980959	     24.97841894	     -0.84010646	     -3.00289964	     -2.82402822	     -1.25048487
      2.83000000	      0.06246733	      8.82816032	    -61.61792525	      0.08905546	      0.96556536	      0.34755420	     39.81411407	     -3.69018532	    -14.20786805	    -27.24364276	     12.69168034	     -6.17063037	      9.46596805	      5.84925573	     -4.66352513	    -20.84866188	     25.37540988	     -0.87008833	     -2.99173821	     -2.92272690	     -1.21323741
      2.84000000	      0.21418333	      8.88579862	    -61.96421177	      0.09294402	      0.96428412	      0.35439103	     39.87350347	     -3.59522513	    -14.76436107	    -25.54531097	     12.61241187	     -5.90032013	      8.87897421	      6.02738078	     -4.95505336	    -20.75311362	     25.75324621	     -0.88637458	     -2.98265750	     -3.02704495	     -1.18566437
